<svg xmlns="http://www.w3.org/2000/svg" viewBox="0 0 32 32">
  <defs>
    <linearGradient id="fg" x1="0%" y1="0%" x2="100%" y2="100%">
      <stop offset="0%" style="stop-color:#10b981"/>
      <stop offset="100%" style="stop-color:#059669"/>
    </linearGradient>
    <linearGradient id="sg" x1="0%" y1="0%" x2="100%" y2="100%">
      <stop offset="0%" style="stop-color:#f59e0b"/>
      <stop offset="100%" style="stop-color:#d97706"/>
    </linearGradient>
  </defs>

  <!-- Folder body -->
  <path d="M3 9 L3 26 Q3 28 5 28 L27 28 Q29 28 29 26 L29 13 Q29 11 27 11 L16 11 L14 9 L5 9 Q3 9 3 9Z" fill="url(#fg)"/>

  <!-- Folder tab highlight -->
  <path d="M5 9 Q3 9 3 10 L3 12 L15 12 L13 9 Z" fill="#34d399"/>

  <!-- Sync arrows (simplified circle with arrows) -->
  <circle cx="16" cy="20" r="5.5" stroke="url(#sg)" stroke-width="2.5" fill="none"/>
  <polygon points="21,17 23,20 20,20" fill="url(#sg)"/>
  <polygon points="11,23 9,20 12,20" fill="url(#sg)"/>
</svg>